<svg width="24" height="17" viewBox="0 0 24 17" fill="none" xmlns="http://www.w3.org/2000/svg">
<path d="M24 4.98002C22.4279 3.39843 20.558 2.14402 18.4983 1.28925C16.4386 0.434484 14.23 -0.00369667 12 2.34907e-05C7.31 2.34907e-05 3.07 1.90002 0 4.98002L12 17V8.00002H20.99L24 4.98002ZM19.59 10L17.5 12.09L15.41 10L14 11.41L16.09 13.5L14 15.59L15.41 17L17.5 14.92L19.59 17L21 15.59L18.92 13.5L21 11.41L19.59 10Z" fill="url(#paint0_linear_54_7)"/>
<defs>
<linearGradient id="paint0_linear_54_7" x1="1.16328e-07" y1="8" x2="24" y2="8" gradientUnits="userSpaceOnUse">
<stop stop-color="#27746D"/>
<stop offset="1" stop-color="#893591"/>
</linearGradient>
</defs>
</svg>
